# xmcd
#
# Track frame offsets: 
#        150
#        19942
#        32562
#        43880
#        54922
#        72832
#        85890
#        100587
#        113105
#        131417
#        142807
#        158790
#        173780
#        186825
#        197795
#        210247
#        222012
#        234770
#        246470
#        260200
#
# Disc length: 3619 seconds
#
# Revision: 4
# Processed by: cddbd v1.5.2PL0 Copyright (c) Steve Scherf et al.
# Submitted via: ExactAudioCopy v0.99pb5
#
DISCID=110e2114
DTITLE=Marty Robbins - All-Time Greatest Hits
DYEAR=1900
DGENRE=Country
TTITLE0=El Paso
TTITLE1=Streets Of Laredo
TTITLE2=Ribbon Of Darkness
TTITLE3=Love is Blue
TTITLE4=Big Iron
TTITLE5=Devil Woman
TTITLE6=Don't Worry
TTITLE7=Tonight Carmen
TTITLE8=You Gave Me a Mountain
TTITLE9=Kaw-Liga
TTITLE10=My Woman, My Woman, My Wife
TTITLE11=Padre
TTITLE12=The Hanging Tree
TTITLE13=Red River Valley
TTITLE14=Joli Girl
TTITLE15=The Girl With Gardenias In Her Hair
TTITLE16=It's A Sin
TTITLE17=Maria (If I Could)
TTITLE18=I Walk Alone
TTITLE19=Aloha Oe (Farewell To Thee)
EXTD=Columbia Records (Sony]\n
EXTT0=
EXTT1=
EXTT2=
EXTT3=
EXTT4=
EXTT5=
EXTT6=
EXTT7=
EXTT8=
EXTT9=
EXTT10=
EXTT11=
EXTT12=
EXTT13=
EXTT14=
EXTT15=
EXTT16=
EXTT17=
EXTT18=
EXTT19=
PLAYORDER=
